<svg xmlns="http://www.w3.org/2000/svg" viewBox="0 0 64 64" role="img" aria-label="The Indian Express">
  <rect width="64" height="64" rx="15" fill="#ffffff"/>
  <g fill="#ec1c24">
    <path d="M41 12.8c-9-1.5-18.6 1.1-19.8 7.9-.7 3.9 1.8 6.6 6.8 8.2l1.8-5.6c-1.9-.7-2.8-1.7-2.6-3 .5-2.5 5.1-3.8 10.9-3.2z"/>
    <path d="M44.3 27c-9-1.5-18.6 1.1-19.8 7.9-.7 3.9 1.8 6.6 6.8 8.2l1.8-5.6c-1.9-.7-2.8-1.7-2.6-3 .5-2.5 5.1-3.8 10.9-3.2z"/>
    <path d="M37.7 41.2c-9-1.5-18.6 1.1-19.8 7.9-.7 3.9 1.8 6.6 6.8 8.2l1.8-5.6c-1.9-.7-2.8-1.7-2.6-3 .5-2.5 5.1-3.8 10.9-3.2z"/>
  </g>
</svg>
